<svg width="982" height="651" viewBox="0 0 982 651" fill="none" xmlns="http://www.w3.org/2000/svg">
<g opacity="0.8">
<path d="M1.00008 50L297.986 580.846" stroke="#0DB8EC" stroke-width="2"/>
<path d="M462.783 300.905C461.618 305.167 464.128 309.566 468.39 310.731C472.652 311.896 477.051 309.386 478.216 305.124C479.382 300.862 476.871 296.463 472.609 295.298C468.347 294.133 463.948 296.643 462.783 300.905ZM66.6291 201.453L470.129 304.468L470.871 301.561L67.3712 198.547L66.6291 201.453Z" fill="#0DB8EC"/>
<line x1="801.896" y1="0.449521" x2="589.896" y2="426.46" stroke="#0DB8EC" stroke-width="2"/>
<path d="M558.498 639.225C556.957 635.084 552.351 632.976 548.21 634.517C544.069 636.058 541.962 640.664 543.503 644.805C545.044 648.946 549.65 651.053 553.79 649.512C557.931 647.972 560.039 643.366 558.498 639.225ZM980.477 480.594L550.477 640.609L551.523 643.421L981.524 483.406L980.477 480.594Z" fill="#0DB8EC"/>
</g>
</svg>
